# xmcd
#
# Track frame offsets: 
#        150
#        18429
#        33419
#        52239
#        68003
#        90586
#        112341
#        126301
#        144838
#        161908
#        181399
#        201935
#        219852
#        242708
#        258131
#        277065
#        293749
#        314048
#
# Disc length: 4492 seconds
#
# Revision: 0
# Processed by: cddbd v1.5.2PL0 Copyright (c) Steve Scherf et al.
# Submitted via: ExactAudioCopy v1.0b1
#
DISCID=17118a12
DTITLE=Various Artist - Italy In Love [CD2) - Canzone Italiana
DYEAR=2009
DGENRE=Easy Listening
TTITLE0=Angelo Fabiani - Canzone Italiana
TTITLE1=Gepy and Gepy - Angelo Blu
TTITLE2=Morena - Attenti Al Lupo
TTITLE3=Stefano Borgia - Se Ti Senti Veramenta Un Amico
TTITLE4=Aleandro Gualdi - Passera
TTITLE5=Rita Forte - E Soltanto Una Canzone
TTITLE6=Paolo Menoli - A Chi
TTITLE7=Riccardo Fogli and Pooh - Giorno Cantate
TTITLE8=Juli and Julie - Pendermi
TTITLE9=Michelangelo Nichetti - Il Mio Specchio
TTITLE10=Edoardo De Angelis and Antonello Venditti - Lella
TTITLE11=Riccardo Fogli - Una Donna Cosi
TTITLE12=Eldordo De Andelis and Amadeo Minghi - La Gara Di Sogni
TTITLE13=I Santo California - Gabbiano
TTITLE14=Clio - Non Siamo Angeli
TTITLE15=Flavia Fortunato - Sette Di Sera
TTITLE16=Nino D'Angelo - Forza Campione
TTITLE17=Max Manfredi and Fabrizio De Andre - La Fiera Della Maddalena
EXTD=
EXTT0=
EXTT1=
EXTT2=
EXTT3=
EXTT4=
EXTT5=
EXTT6=
EXTT7=
EXTT8=
EXTT9=
EXTT10=
EXTT11=
EXTT12=
EXTT13=
EXTT14=
EXTT15=
EXTT16=
EXTT17=
PLAYORDER=
